<?xml version="1.0" encoding="UTF-8"?>
<svg width="154px" height="68px" viewBox="0 0 154 68" version="1.1" xmlns="http://www.w3.org/2000/svg" xmlns:xlink="http://www.w3.org/1999/xlink">
    <title>Group 4</title>
    <defs>
        <polygon id="path-1" points="0 28.4141414 97 28.4141414 97 0 0 0"></polygon>
        <polygon id="path-3" points="0 28.4141414 97 28.4141414 97 0 0 0"></polygon>
    </defs>
    <g id="CABECERAS-NUEVAS" stroke="none" stroke-width="1" fill="none" fill-rule="evenodd">
        <g id="Mobile_VIAJES_02" transform="translate(-58.000000, -57.000000)">
            <g id="Group-4" transform="translate(58.000000, 57.000000)">
                <g id="Group" transform="translate(-0.000000, 0.000000)" fill="#FEFEFE">
                    <g id="VIAJES-SOLO-Copy" transform="translate(-0.000000, 0.000000)">
                        <polygon id="Fill-1-Copy" points="26.2964482 0.498849425 17.3891946 25.0955478 8.48164082 0.498849425 -5.7582753e-14 0.498849425 13.8966483 35.6728364 20.6818409 35.6728364 34.5784892 0.498849425"></polygon>
                        <polygon id="Fill-2-Copy" points="35.8258529 35.4230515 43.5093947 35.4230515 43.5093947 0.498489245 35.8258529 0.498489245"></polygon>
                        <path d="M58.8988694,20.8048424 L63.1135768,9.47957979 L67.7535968,20.8048424 L58.8988694,20.8048424 Z M66.7555978,0.249364682 L59.6705553,0.249364682 L45.1288844,35.4230515 L52.961901,35.4230515 L56.1548974,27.5903352 L70.0722561,27.5903352 L73.2652526,35.4230515 L81.2978689,35.4230515 L66.7555978,0.249364682 Z" id="Fill-3-Copy"></path>
                        <path d="M89.1023412,24.003902 C89.1023412,27.9370685 88.3684742,29.2484242 86.165973,29.2484242 C84.7501651,29.2484242 83.6486143,28.6715358 82.4948374,27.307954 L82.4948374,34.8990495 C83.9106453,35.6329165 86.3094447,36 88.3027414,36 C90.6622211,36 92.5504652,35.2658329 94.0713257,33.7452726 C96.0117959,31.8048024 96.6934367,29.4975488 96.6934367,24.6723362 L96.6934367,0.443621811 L89.1023412,0.443621811 L89.1023412,24.003902 Z" id="Fill-4"></path>
                        <polygon id="Fill-6" points="99.5906053 35.4230815 125.292156 35.4230815 125.292156 28.5883642 107.224022 28.5883642 107.224022 21.2538969 122.797009 21.2538969 122.797009 14.4188794 107.224022 14.4188794 107.224022 7.33413707 125.042431 7.33413707 125.042431 0.49851926 99.5906053 0.49851926"></polygon>
                        <path d="M140.984332,35.921961 C148.518099,35.921961 153.807044,32.0305153 153.807044,25.0955478 L153.807044,24.9958979 C153.807044,18.9088544 149.815348,16.3641821 142.730605,14.5185593 C136.693687,12.9718859 135.196538,12.2233117 135.196538,9.92836418 L135.196538,9.82871436 C135.196538,8.13226613 136.743512,6.78489245 139.687084,6.78489245 C142.630355,6.78489245 145.674177,8.08244122 148.767824,10.227914 L152.758919,4.44042021 C149.216248,1.59649825 144.875778,1.27961673e-14 139.786733,1.27961673e-14 C132.652166,1.27961673e-14 127.563122,4.1909955 127.563122,10.5271636 L127.563122,10.6271136 C127.563122,17.562081 132.103492,19.5073537 139.138409,21.3037519 C144.975428,22.8003002 146.173027,23.7985993 146.173027,25.7438719 L146.173027,25.8441221 C146.173027,27.8893447 144.277279,29.1370685 141.133807,29.1370685 C137.142711,29.1370685 133.849765,27.4901451 130.706593,24.8962481 L126.166223,30.334067 C130.357219,34.0766383 135.695388,35.921961 140.984332,35.921961" id="Fill-8"></path>
                    </g>
                </g>
                <g id="Group-37" transform="translate(1.000000, 38.000000)">
                    <path d="M0,29.3939394 L19.5959596,29.3939394 L19.5959596,0.97979798 L0,0.97979798 L0,29.3939394 Z M2.82371814,26.532168 L16.7610035,26.532168 L16.7610035,3.84081122 L2.82371814,3.84081122 L2.82371814,26.532168 Z" id="Fill-1" fill="#FFD400"></path>
                    <g id="Group-12" transform="translate(0.000000, 0.979798)">
                        <path d="M33.102384,12.7461988 L31.8693428,12.7461988 C30.2538041,10.4716421 28.6527136,8.21111178 27.051243,5.65375187 L27.037175,5.65375187 L27.037175,12.7461988 L25.6767613,12.7461988 L25.6767613,2.85566803 L26.9094223,2.85566803 C28.524961,5.1161983 30.1264317,7.36346032 31.7134542,9.90603562 L31.7419704,9.90603562 L31.7419704,2.85566803 L33.102384,2.85566803 L33.102384,12.7461988 Z" id="Fill-2" fill="#FFFFFF"></path>
                        <path d="M36.3331192,8.83236904 C36.7296847,7.53283898 37.1266304,6.33187304 37.4809919,4.8052664 L37.5091279,4.8052664 C37.9060737,6.33187304 38.260055,7.53283898 38.6288647,8.83236904 L36.3331192,8.83236904 Z M36.9848098,2.85559221 L33.5556397,12.7461229 L35.0293578,12.7461229 L35.8935892,10.0473614 L38.8836095,10.0473614 L39.6630528,12.7461229 L41.5622328,12.7461229 L38.4018756,2.85559221 L36.9848098,2.85559221 Z" id="Fill-4" fill="#FFFFFF"></path>
                        <polygon id="Fill-6" fill="#FFFFFF" points="43.1632472 12.7461988 43.1632472 4.18400914 40.5557244 4.18400914 40.5557244 2.85566803 47.4710969 2.85566803 47.4710969 4.18400914 44.8635741 4.18400914 44.8635741 12.7461988"></polygon>
                        <mask id="mask-2" fill="white">
                            <use xlink:href="#path-1"></use>
                        </mask>
                        <g id="Clip-9"></g>
                        <polygon id="Fill-8" fill="#FFFFFF" mask="url(#mask-2)" points="48.0239693 12.7462367 49.709848 12.7462367 49.709848 2.85570594 48.0239693 2.85570594"></polygon>
                        <path d="M54.9531056,11.5030398 C53.1816783,11.5030398 52.5581237,9.5533656 52.5581237,7.65941806 C52.5581237,5.83673995 53.2672269,4.09897863 54.9531056,4.09897863 C56.6397447,4.09897863 57.3480876,5.83673995 57.3480876,7.65941806 C57.3480876,9.5533656 56.724533,11.5030398 54.9531056,11.5030398 M54.9531056,2.68609983 C52.5299877,2.68609983 50.7448726,4.89052436 50.7448726,7.65941806 C50.7448726,10.6129299 52.3596508,12.9159186 54.9531056,12.9159186 C57.5465604,12.9159186 59.1620991,10.6129299 59.1620991,7.65941806 C59.1620991,4.89052436 57.3762236,2.68609983 54.9531056,2.68609983" id="Fill-10" fill="#FFFFFF" mask="url(#mask-2)"></path>
                        <path d="M67.6222521,12.7461988 L66.3895911,12.7461988 C64.7740524,10.4716421 63.1722015,8.21111178 61.5714912,5.65375187 L61.557043,5.65375187 L61.557043,12.7461988 L60.1962492,12.7461988 L60.1962492,2.85566803 L61.4296706,2.85566803 C63.0452093,5.1161983 64.6459195,7.36346032 66.2333222,9.90603562 L66.2614582,9.90603562 L66.2614582,2.85566803 L67.6222521,2.85566803 L67.6222521,12.7461988 Z" id="Fill-11" fill="#FFFFFF" mask="url(#mask-2)"></path>
                    </g>
                    <text id="-" font-family="Verlag-Book, Verlag" font-size="11.4845" font-weight="300"></text>
                    <text id="-" font-family="Verlag-Book, Verlag" font-size="11.4845" font-weight="300"></text>
                    <g id="Group-36" transform="translate(0.000000, 0.979798)">
                        <path d="M32.0558769,21.0203537 L32.0558769,25.103562 C31.148681,25.4568765 30.1992811,25.7116269 29.2358132,25.7116269 C26.3165131,25.7116269 24.4743656,23.4510966 24.4743656,20.539664 C24.4743656,17.8416607 26.3165131,15.4821872 29.2924654,15.4821872 C30.2133491,15.4821872 31.134613,15.8210961 31.7015154,16.2445428 L31.148681,17.4174559 C30.6954633,17.1354108 29.9867403,16.8946869 29.3350497,16.8946869 C27.5210381,16.8946869 26.2879969,18.3223503 26.2879969,20.5688542 C26.2879969,22.9143012 27.705443,24.2979899 29.1647128,24.2979899 C29.6183107,24.2979899 30.0008083,24.2418841 30.3551698,24.0584032 L30.3551698,21.0203537 L32.0558769,21.0203537 Z" id="Fill-13" fill="#FFFFFF"></path>
                        <polygon id="Fill-15" fill="#FFFFFF" points="38.1348878 16.979907 35.3007561 16.979907 35.3007561 19.6926949 38.0782356 19.6926949 38.0782356 21.0202779 35.3007561 21.0202779 35.3007561 24.2137555 38.6451379 24.2137555 38.6451379 25.5420966 33.6004292 25.5420966 33.6004292 15.6515658 38.1348878 15.6515658"></polygon>
                        <path d="M43.3780694,24.2988997 C41.606642,24.2988997 40.9830874,22.3484673 40.9830874,20.455278 C40.9830874,18.6325999 41.6918105,16.8948385 43.3780694,16.8948385 C45.0647085,16.8948385 45.7730513,18.6325999 45.7730513,20.455278 C45.7730513,22.3484673 45.1494967,24.2988997 43.3780694,24.2988997 M43.3780694,15.4819597 C40.9549514,15.4819597 39.1694561,17.6863843 39.1694561,20.455278 C39.1694561,23.4080317 40.7849948,25.7117785 43.3780694,25.7117785 C45.9715242,25.7117785 47.5870628,23.4080317 47.5870628,20.455278 C47.5870628,17.6863843 45.8015675,15.4819597 43.3780694,15.4819597" id="Fill-17" fill="#FFFFFF"></path>
                        <path d="M55.7492023,21.0203537 L55.7492023,25.103562 C54.8423867,25.4568765 53.8929868,25.7116269 52.9291387,25.7116269 C50.010599,25.7116269 48.167691,23.4510966 48.167691,20.539664 C48.167691,17.8416607 50.010599,15.4821872 52.9861711,15.4821872 C53.9070548,15.4821872 54.8286989,15.8210961 55.395221,16.2445428 L54.8423867,17.4174559 C54.3891689,17.1354108 53.6800657,16.8946869 53.0283751,16.8946869 C51.2147438,16.8946869 49.9817026,18.3223503 49.9817026,20.5688542 C49.9817026,22.9143012 51.3987684,24.2979899 52.8587987,24.2979899 C53.3120164,24.2979899 53.6945139,24.2418841 54.0488754,24.0584032 L54.0488754,21.0203537 L55.7492023,21.0203537 Z" id="Fill-19" fill="#FFFFFF"></path>
                        <path d="M59.7173288,20.5405738 C59.546992,20.5538421 59.1500463,20.5686267 59.0082256,20.5826531 L59.0082256,16.9797553 L59.7599131,16.9797553 C60.7659652,16.9797553 61.3328675,17.5590091 61.3328675,18.576115 C61.3328675,19.9044562 60.5245279,20.4977364 59.7173288,20.5405738 L59.7173288,20.5405738 Z M61.3184193,21.4447101 C62.4096399,20.8646982 63.0331944,19.6929224 63.0331944,18.5059829 C63.0331944,16.5836034 61.8571857,15.6517933 59.9583859,15.6517933 L57.3078987,15.6517933 L57.3078987,25.5419449 L59.0082256,25.5419449 L59.0082256,21.812051 L59.7454648,21.812051 L59.7736008,21.812051 L61.3750715,25.5419449 L63.3164555,25.5419449 L61.3184193,21.4447101 Z" id="Fill-21" fill="#FFFFFF"></path>
                        <path d="M66.1227173,21.6282289 C66.5189026,20.3279407 66.9158484,19.1269748 67.2698296,17.6011263 L67.2987261,17.6011263 C67.6956718,19.1269748 68.0496531,20.3279407 68.4177024,21.6282289 L66.1227173,21.6282289 Z M68.1910935,15.6514521 L66.7740277,15.6514521 L63.3448577,25.5419828 L64.8185757,25.5419828 L65.6831874,22.8432213 L68.6732077,22.8432213 L69.4526509,25.5419828 L71.3514507,25.5419828 L68.1910935,15.6514521 Z" id="Fill-23" fill="#FFFFFF"></path>
                        <path d="M70.8529492,8.83236904 C71.249895,7.53283898 71.6464605,6.33187304 72.000822,4.8052664 L72.028958,4.8052664 C72.4259037,6.33187304 72.7802652,7.53283898 73.1486947,8.83236904 L70.8529492,8.83236904 Z M72.9220859,2.85559221 L71.5046398,2.85559221 L68.0750896,12.7461229 L69.5491878,12.7461229 L70.4134193,10.0473614 L73.4034396,10.0473614 L74.1828828,12.7461229 L76.0816826,12.7461229 L72.9220859,2.85559221 Z" id="Fill-25" fill="#FFFFFF"></path>
                        <polygon id="Fill-27" fill="#FFFFFF" points="76.5779028 2.85574385 78.2645419 2.85574385 78.2645419 11.4179335 81.6226115 11.4179335 81.6226115 12.7462746 76.5779028 12.7462746"></polygon>
                        <path d="M73.5900497,25.5420587 L71.8897228,25.5420587 L71.8897228,15.6515279 L74.5394496,15.6515279 C76.4390098,15.6515279 77.6150185,16.5837171 77.6150185,18.5057175 C77.6150185,20.1725885 76.3819774,21.8117857 74.3554249,21.8117857 L73.5619137,21.8117857 L73.5619137,20.5827669 C73.6467019,20.5679823 74.1143679,20.554714 74.2991529,20.5406876 C75.106352,20.497471 75.9139312,19.9045699 75.9139312,18.5762288 C75.9139312,17.5587437 75.3477893,16.9798691 74.3554249,16.9798691 L73.5900497,16.9798691 L73.5900497,25.5420587 Z" id="Fill-29" fill="#FFFFFF"></path>
                        <polygon id="Fill-31" fill="#FFFFFF" points="85.4937068 25.5420587 83.7933799 25.5420587 83.7933799 20.7802742 80.2649735 20.7802742 80.2649735 25.5420587 78.5783343 25.5420587 78.5783343 15.6515279 80.2649735 15.6515279 80.2649735 19.4523122 83.7933799 19.4523122 83.7933799 15.6795808 85.4937068 15.6795808"></polygon>
                        <mask id="mask-4" fill="white">
                            <use xlink:href="#path-3"></use>
                        </mask>
                        <g id="Clip-34"></g>
                        <polygon id="Fill-33" fill="#FFFFFF" mask="url(#mask-4)" points="87.1231234 25.5421345 88.8097625 25.5421345 88.8097625 15.6516038 87.1231234 15.6516038"></polygon>
                        <path d="M96.461842,17.4456224 C96.050448,17.1916303 95.3706214,16.8948006 94.7185506,16.8948006 C92.9900877,16.8948006 91.7285303,18.3224641 91.7285303,20.5685888 C91.7285303,22.9136568 93.1174602,24.2988618 94.7615151,24.2988618 C95.4132057,24.2988618 96.022312,24.087328 96.461842,23.8041457 L96.9295079,25.0335436 C96.4192578,25.386479 95.5124421,25.7109824 94.6904146,25.7109824 C91.7711145,25.7109824 89.928967,23.4512103 89.928967,20.5405359 C89.928967,17.8417744 91.7574268,15.4819218 94.7185506,15.4819218 C95.5972303,15.4819218 96.4192578,15.8492627 96.9998479,16.2446565 L96.461842,17.4456224 Z" id="Fill-35" fill="#FFFFFF" mask="url(#mask-4)"></path>
                    </g>
                </g>
            </g>
        </g>
    </g>
</svg>