<?xml version="1.0" encoding="UTF-8"?>
<svg width="432px" height="55px" viewBox="0 0 432 55" version="1.1" xmlns="http://www.w3.org/2000/svg" xmlns:xlink="http://www.w3.org/1999/xlink">
    <title>okviajes</title>
    <defs>
        <polygon id="path-1" points="-1.96137174e-14 0 21.6096765 0 21.6096765 53.6795236 -1.96137174e-14 53.6795236"></polygon>
    </defs>
    <g id="CABECERAS-NUEVAS" stroke="none" stroke-width="1" fill="none" fill-rule="evenodd">
        <g id="Desktop_VIAJES" transform="translate(-504.000000, -70.000000)">
            <g id="okviajes" transform="translate(504.000000, 70.000000)">
                <polygon id="Fill-1" fill="#000000" points="40.0228268 1.40303189 26.4665745 38.5379235 12.908942 1.40303189 -9.21844717e-13 1.40303189 21.1500723 54.5054888 31.478054 54.5054888 52.6281264 1.40303189"></polygon>
                <polygon id="Fill-2" fill="#000000" points="54.5258913 54.1292659 66.2216439 54.1292659 66.2216439 1.4033057 54.5258913 1.4033057"></polygon>
                <path d="M90.8190234,1.0259876 L68.6862539,54.1284445 L80.6083581,54.1284445 L85.4693967,42.3037114 L106.651213,42.3037114 L111.509492,54.1284445 L123.736618,54.1284445 L101.602469,1.0259876 L90.8190234,1.0259876 Z M96.0582348,14.960471 L103.120681,32.0588953 L89.6444795,32.0588953 L96.0582348,14.960471 Z" id="Fill-3" fill="#000000"></path>
                <g id="Group-6" transform="translate(125.557921, 1.320476)">
                    <mask id="mask-2" fill="white">
                        <use xlink:href="#path-1"></use>
                    </mask>
                    <g id="Clip-5"></g>
                    <path d="M10.0560837,35.5700346 C10.0560837,41.50636 8.93950787,43.4860478 5.58701989,43.4860478 C3.43253915,43.4860478 1.75560507,42.6153138 -1.96137174e-14,40.5575884 L-1.96137174e-14,52.0181465 C2.15448074,53.1257312 5.80509033,53.6802081 8.8387538,53.6802081 C12.4300151,53.6802081 15.3049564,52.5712543 17.6181593,50.2753093 C20.5717716,47.3468499 21.6096765,43.8625445 21.6096765,36.5776765 L21.6096765,0 L10.0560837,0 L10.0560837,35.5700346 Z" id="Fill-4" fill="#000000" mask="url(#mask-2)"></path>
                </g>
                <polygon id="Fill-7" fill="#000000" points="151.577865 54.1283076 190.695285 54.1283076 190.695285 43.8109302 163.194946 43.8109302 163.194946 32.7364523 186.896995 32.7364523 186.896995 22.419075 163.194946 22.419075 163.194946 11.7210938 190.315732 11.7210938 190.315732 1.40234735 151.577865 1.40234735"></polygon>
                <path d="M214.578829,54.8823961 C226.04547,54.8823961 234.094753,49.0076793 234.094753,38.5383342 L234.094753,38.3863665 C234.094753,29.1957409 228.019145,25.3554751 217.23708,22.5680308 C208.049138,20.2337515 205.769059,19.1028925 205.769059,15.6391233 L205.769059,15.4885246 C205.769059,12.9269783 208.125048,10.8925273 212.603773,10.8925273 C217.083879,10.8925273 221.717186,12.851679 226.425023,16.0909193 L232.499251,7.35208971 C227.108218,3.0586588 220.501236,0.650449307 212.755595,0.650449307 C201.897619,0.650449307 194.151978,6.97696214 194.151978,16.5413462 L194.151978,16.6933139 C194.151978,27.1640281 201.062602,30.0993329 211.768757,32.8128469 C220.653057,35.0718268 222.476291,36.5791825 222.476291,39.5158564 L222.476291,39.6678242 C222.476291,42.7550967 219.590309,44.6403181 214.806561,44.6403181 C208.732333,44.6403181 203.720853,42.1527021 198.935725,38.2371369 L192.026481,46.446133 C198.404351,52.0963209 206.529545,54.8823961 214.578829,54.8823961" id="Fill-9" fill="#000000"></path>
                <path d="M242.913908,54.7631494 L281.559303,54.7631494 L281.559303,-3.20160319e-13 L242.913908,-3.20160319e-13 L242.913908,54.7631494 Z M248.434679,49.2868344 L276.038532,49.2868344 L276.038532,5.47631494 L248.434679,5.47631494 L248.434679,49.2868344 Z" id="Fill-1" fill="#FFD400"></path>
                <path d="M304.714294,25.1801568 L302.258038,25.1801568 C299.039835,20.6867627 295.850414,16.2210778 292.660235,11.1690051 L292.632211,11.1690051 L292.632211,25.1801568 L289.922226,25.1801568 L289.922226,5.64138141 L292.377724,5.64138141 C295.595927,10.1070663 298.786106,14.5465396 301.947503,19.5694054 L302.004308,19.5694054 L302.004308,5.64138141 L304.714294,5.64138141 L304.714294,25.1801568 Z" id="Fill-2" fill="#000000"></path>
                <path d="M311.150017,17.4483736 C311.939988,14.8811477 312.730716,12.5086356 313.436615,9.49281929 L313.492663,9.49281929 C314.283391,12.5086356 314.988532,14.8811477 315.723213,17.4483736 L311.150017,17.4483736 Z M312.448205,5.64123163 L305.617193,25.180007 L308.552885,25.180007 L310.27446,19.8485949 L316.230672,19.8485949 L317.783347,25.180007 L321.566572,25.180007 L315.271043,5.64123163 L312.448205,5.64123163 Z" id="Fill-4" fill="#000000"></path>
                <polygon id="Fill-6" fill="#000000" points="324.755842 25.1801568 324.755842 8.26552357 319.561576 8.26552357 319.561576 5.64138141 333.33721 5.64138141 333.33721 8.26552357 328.142945 8.26552357 328.142945 25.1801568"></polygon>
                <polygon id="Fill-8" fill="#000000" points="334.438549 25.1802317 337.796871 25.1802317 337.796871 5.6414563 334.438549 5.6414563"></polygon>
                <path d="M348.241601,22.7242922 C344.712863,22.7242922 343.470723,18.8727046 343.470723,15.1312051 C343.470723,11.5304986 344.883279,8.09754552 348.241601,8.09754552 C351.601438,8.09754552 353.012478,11.5304986 353.012478,15.1312051 C353.012478,18.8727046 351.770338,22.7242922 348.241601,22.7242922 M348.241601,5.30639888 C343.414676,5.30639888 339.858672,9.66124667 339.858672,15.1312051 C339.858672,20.9658774 343.075359,25.5154389 348.241601,25.5154389 C353.407842,25.5154389 356.626045,20.9658774 356.626045,15.1312051 C356.626045,9.66124667 353.068526,5.30639888 348.241601,5.30639888" id="Fill-10" fill="#000000"></path>
                <path d="M373.478929,25.1801568 L371.02343,25.1801568 C367.805228,20.6867627 364.614292,16.2210778 361.425628,11.1690051 L361.396846,11.1690051 L361.396846,25.1801568 L358.686103,25.1801568 L358.686103,5.64138141 L361.143117,5.64138141 C364.361319,10.1070663 367.549983,14.5465396 370.712138,19.5694054 L370.768186,19.5694054 L370.768186,5.64138141 L373.478929,5.64138141 L373.478929,25.1801568 Z" id="Fill-11" fill="#000000"></path>
                <text id="-" font-family="Verlag-Book, Verlag" font-size="11.4845" font-weight="300"></text>
                <text id="-" font-family="Verlag-Book, Verlag" font-size="11.4845" font-weight="300"></text>
                <path d="M302.62962,41.5257766 L302.62962,49.5921679 C300.822458,50.2901418 298.931224,50.7934019 297.011966,50.7934019 C291.196631,50.7934019 287.527017,46.3277171 287.527017,40.5761726 C287.527017,35.2462583 291.196631,30.5851108 297.124819,30.5851108 C298.959248,30.5851108 300.794434,31.2546265 301.923721,32.0911467 L300.822458,34.4082403 C299.919634,33.8510594 298.507836,33.3755085 297.209648,33.3755085 C293.596082,33.3755085 291.139826,36.1958622 291.139826,40.6338378 C291.139826,45.267276 293.963422,48.0007575 296.870332,48.0007575 C297.773913,48.0007575 298.53586,47.8899204 299.241759,47.5274533 L299.241759,41.5257766 L302.62962,41.5257766 Z" id="Fill-13" fill="#000000"></path>
                <polygon id="Fill-15" fill="#000000" points="314.739195 33.543861 309.093518 33.543861 309.093518 38.9029824 314.626343 38.9029824 314.626343 41.5256268 309.093518 41.5256268 309.093518 47.8343521 315.755629 47.8343521 315.755629 50.4584943 305.706415 50.4584943 305.706415 30.9197189 314.739195 30.9197189"></polygon>
                <path d="M325.183774,48.0025548 C321.655036,48.0025548 320.412896,44.1494694 320.412896,40.4094677 C320.412896,36.8087612 321.824694,33.3758081 325.183774,33.3758081 C328.543611,33.3758081 329.954651,36.8087612 329.954651,40.4094677 C329.954651,44.1494694 328.712511,48.0025548 325.183774,48.0025548 M325.183774,30.5846615 C320.356849,30.5846615 316.800087,34.9395092 316.800087,40.4094677 C316.800087,46.2426421 320.01829,50.7937015 325.183774,50.7937015 C330.350015,50.7937015 333.568218,46.2426421 333.568218,40.4094677 C333.568218,34.9395092 330.011456,30.5846615 325.183774,30.5846615" id="Fill-17" fill="#000000"></path>
                <path d="M349.82745,41.5257766 L349.82745,49.5921679 C348.021045,50.2901418 346.129812,50.7934019 344.209797,50.7934019 C338.395976,50.7934019 334.724847,46.3277171 334.724847,40.5761726 C334.724847,35.2462583 338.395976,30.5851108 344.323407,30.5851108 C346.157835,30.5851108 347.993779,31.2546265 349.122308,32.0911467 L348.021045,34.4082403 C347.118222,33.8510594 345.705666,33.3755085 344.407479,33.3755085 C340.794669,33.3755085 338.338414,36.1958622 338.338414,40.6338378 C338.338414,45.267276 341.161252,48.0007575 344.069677,48.0007575 C344.972501,48.0007575 345.734448,47.8899204 346.440347,47.5274533 L346.440347,41.5257766 L349.82745,41.5257766 Z" id="Fill-19" fill="#000000"></path>
                <path d="M357.732079,40.57797 C357.392763,40.6041814 356.602035,40.6333885 356.319524,40.6610977 L356.319524,33.5435615 L357.816909,33.5435615 C359.820995,33.5435615 360.950282,34.6878792 360.950282,36.6971752 C360.950282,39.3213174 359.340045,40.4933444 357.732079,40.57797 L357.732079,40.57797 Z M360.921501,42.3640941 C363.095246,41.2182786 364.337385,38.9034317 364.337385,36.5586289 C364.337385,32.760962 361.99474,30.9201682 358.212273,30.9201682 L352.932421,30.9201682 L352.932421,50.4581947 L356.319524,50.4581947 L356.319524,43.0897773 L357.788127,43.0897773 L357.844175,43.0897773 L361.034354,50.4581947 L364.90165,50.4581947 L360.921501,42.3640941 Z" id="Fill-21" fill="#000000"></path>
                <path d="M370.49181,42.7266361 C371.281023,40.1579125 372.071751,37.7854004 372.776893,34.7710819 L372.834455,34.7710819 C373.625183,37.7854004 374.330325,40.1579125 375.06349,42.7266361 L370.49181,42.7266361 Z M374.612078,30.9194942 L371.78924,30.9194942 L364.958228,50.4582696 L367.89392,50.4582696 L369.616253,45.1268575 L375.572465,45.1268575 L377.125139,50.4582696 L380.907607,50.4582696 L374.612078,30.9194942 Z" id="Fill-23" fill="#000000"></path>
                <path d="M379.914577,17.4483736 C380.705305,14.8811477 381.495275,12.5086356 382.201174,9.49281929 L382.257222,9.49281929 C383.04795,12.5086356 383.753849,14.8811477 384.487772,17.4483736 L379.914577,17.4483736 Z M384.03636,5.64123163 L381.212764,5.64123163 L374.380995,25.180007 L377.317444,25.180007 L379.039019,19.8485949 L384.995231,19.8485949 L386.547906,25.180007 L390.330374,25.180007 L384.03636,5.64123163 Z" id="Fill-25" fill="#000000"></path>
                <polygon id="Fill-27" fill="#000000" points="391.318859 5.64153119 394.678696 5.64153119 394.678696 22.5561644 401.368074 22.5561644 401.368074 25.1803066 391.318859 25.1803066"></polygon>
                <path d="M385.366965,50.4584194 L381.979861,50.4584194 L381.979861,30.919644 L387.258198,30.919644 C391.04218,30.919644 393.384826,32.7611867 393.384826,36.5581047 C393.384826,39.8510137 390.92857,43.089253 386.891615,43.089253 L385.310917,43.089253 L385.310917,40.6613224 C385.479818,40.6321154 386.411422,40.6059039 386.77952,40.5781946 C388.387485,40.4928201 389.996208,39.3215421 389.996208,36.6973999 C389.996208,34.6873549 388.868436,33.5437861 386.891615,33.5437861 L385.366965,33.5437861 L385.366965,50.4584194 Z" id="Fill-29" fill="#000000"></path>
                <polygon id="Fill-31" fill="#000000" points="409.079414 50.4584194 405.692311 50.4584194 405.692311 41.0514988 398.663617 41.0514988 398.663617 50.4584194 395.30378 50.4584194 395.30378 30.919644 398.663617 30.919644 398.663617 38.4281055 405.692311 38.4281055 405.692311 30.9750625 409.079414 30.9750625"></polygon>
                <polygon id="Fill-33" fill="#000000" points="412.325262 50.4585692 415.685099 50.4585692 415.685099 30.9197938 412.325262 30.9197938"></polygon>
                <path d="M430.928276,34.4638835 C430.108766,33.9621211 428.754531,33.3757332 427.455586,33.3757332 C424.012435,33.3757332 421.499374,36.1960869 421.499374,40.6333136 C421.499374,45.2660029 424.266165,48.0024799 427.541172,48.0024799 C428.83936,48.0024799 430.052719,47.5845866 430.928276,47.0251667 L431.859881,49.4538462 C430.843447,50.1510712 429.037042,50.7921288 427.399538,50.7921288 C421.584203,50.7921288 417.914589,46.3279417 417.914589,40.5778951 C417.914589,35.246483 421.556936,30.5845866 427.455586,30.5845866 C429.205943,30.5845866 430.843447,31.3102697 432,32.0913714 L430.928276,34.4638835 Z" id="Fill-35" fill="#000000"></path>
            </g>
        </g>
    </g>
</svg>